<svg width="72" height="73" viewBox="0 0 72 73" fill="none" xmlns="http://www.w3.org/2000/svg">
<rect y="0.210693" width="72" height="72" rx="20" fill="#0071BF"/>
<path d="M36.0015 60.2106C28.5059 60.2106 21.0104 60.2106 13.5149 60.2106C12.2212 60.2106 12 59.9876 12 58.6892C12 53.8195 12 48.9517 12 44.082C12 42.8342 12.2306 42.5962 13.453 42.5962C17.3564 42.5943 21.2616 42.5718 25.165 42.6149C25.928 42.6224 26.108 42.3882 26.0762 41.6744C26.0218 40.4602 26.0368 39.2405 26.0724 38.0244C26.0874 37.4942 25.9205 37.3162 25.3881 37.3424C24.6438 37.3799 23.7214 37.4867 23.7664 36.3569C23.8095 35.3057 24.7057 35.4781 25.4087 35.4762C32.4674 35.4725 39.5242 35.4744 46.583 35.4744C46.8023 35.4744 47.0198 35.4744 47.2391 35.4744C47.8747 35.4837 48.259 35.7966 48.2459 36.4412C48.2347 37.037 47.8578 37.3068 47.271 37.3518C45.9361 37.4567 45.938 37.4661 45.938 38.7645C45.938 39.7014 45.9905 40.642 45.9211 41.5732C45.863 42.3657 46.058 42.6281 46.9223 42.6168C50.7938 42.5606 54.6672 42.5906 58.5406 42.5943C59.7667 42.5943 59.9973 42.8304 59.9992 44.0764C59.9992 48.9761 60.001 53.8776 59.9992 58.7772C59.9992 59.952 59.7461 60.2069 58.5818 60.2069C51.0544 60.2087 43.5289 60.2069 36.0015 60.2069V60.2106ZM27.9397 47.805C27.9397 50.9584 27.966 54.1137 27.921 57.2671C27.9097 58.0821 28.0728 58.3707 28.969 58.3594C33.2492 58.307 37.5294 58.3351 41.8115 58.3351C43.3039 58.3351 44.0532 57.6043 44.0594 56.1429C44.0594 56.0173 44.0613 55.8937 44.0594 55.7681C44.0519 55.1404 44.3313 54.7245 44.9818 54.7151C45.6287 54.7058 45.9324 55.103 45.9343 55.7363C45.9361 56.3302 45.9793 56.9261 45.9249 57.5144C45.863 58.1702 46.0842 58.3538 46.7479 58.3482C50.2463 58.3145 53.7466 58.3145 57.2469 58.3482C57.9294 58.3557 58.145 58.2058 58.1375 57.4825C58.1 53.4242 58.0981 49.3639 58.1375 45.3037C58.145 44.5542 57.8862 44.4474 57.2301 44.4549C54.2303 44.4867 51.2306 44.4699 48.2309 44.4699C45.9511 44.4699 45.9418 44.4699 45.9399 46.707C45.9399 47.4209 45.878 48.0992 44.9631 48.0823C44.1119 48.0655 44.0482 47.4153 44.0501 46.737C44.0613 43.8647 44.0369 40.9905 44.0688 38.1181C44.0744 37.5092 43.9076 37.3312 43.2908 37.3349C38.4481 37.3593 33.6036 37.3612 28.7609 37.3349C28.1197 37.3312 27.9116 37.4792 27.9191 38.1518C27.9547 41.3671 27.936 44.5842 27.936 47.8013L27.9397 47.805ZM26.0612 51.4962C26.0612 49.407 26.0368 47.316 26.0762 45.2268C26.0874 44.5954 25.8774 44.4549 25.2831 44.4586C21.7247 44.483 18.1682 44.483 14.6098 44.4586C14.0529 44.4549 13.8617 44.5823 13.8654 45.1781C13.8917 49.3264 13.8917 53.4748 13.8654 57.6231C13.8617 58.2189 14.0529 58.3463 14.6098 58.3426C18.1682 58.3201 21.7247 58.3182 25.2831 58.3426C25.8774 58.3463 26.0893 58.2058 26.0762 57.5744C26.0368 55.547 26.0612 53.5197 26.0612 51.4924V51.4962Z" fill="white"/>
<path d="M29.794 19.9041C30.3564 19.9041 30.9282 19.8385 31.4794 19.9191C32.415 20.0559 32.7899 19.6456 33.0074 18.7818C33.3036 17.607 33.7273 16.4641 34.1173 15.3155C34.451 14.3262 35.1466 13.751 36.0109 13.7978C36.9914 13.8503 37.6045 14.388 37.8969 15.3342C38.3019 16.6421 38.7706 17.9311 39.1587 19.2427C39.3087 19.7505 39.5393 19.9304 40.0736 19.9172C41.4779 19.8816 42.884 19.9135 44.2901 19.9041C45.25 19.8966 45.9193 20.3238 46.2174 21.2269C46.5192 22.1375 46.2005 22.8851 45.445 23.4416C44.3651 24.2361 43.2964 25.0549 42.1715 25.7818C41.5472 26.1866 41.4947 26.5669 41.746 27.2264C42.2109 28.4462 42.5746 29.7034 42.9608 30.9513C43.2721 31.9556 43.0321 32.7275 42.2597 33.2559C41.4554 33.8049 40.6736 33.6887 39.9199 33.1379C38.81 32.3303 37.6813 31.5471 36.5996 30.7021C36.1384 30.3424 35.829 30.3723 35.3828 30.7208C34.3235 31.5434 33.2136 32.2985 32.1356 33.0985C31.3519 33.6794 30.5551 33.8199 29.7209 33.2409C28.9353 32.6957 28.7216 31.9162 29.0665 30.837C29.4828 29.5329 29.9121 28.2326 30.3564 26.9398C30.5064 26.5032 30.4577 26.2184 30.0396 25.9336C28.8791 25.1448 27.7504 24.3091 26.6199 23.4772C25.765 22.8477 25.4781 22.0532 25.7894 21.2063C26.1193 20.3088 26.7793 19.8873 27.7354 19.9041C28.4216 19.9172 29.1097 19.906 29.7977 19.9041H29.794ZM36.0934 15.9319C36.0259 15.9413 35.9584 15.9507 35.8909 15.96C35.3697 17.5527 34.8241 19.1378 34.3423 20.7417C34.1192 21.4855 33.7142 21.8303 32.9305 21.7984C32.1206 21.7647 31.3088 21.7741 30.497 21.7947C29.5952 21.819 28.6841 21.701 27.6492 21.8902C29.0853 22.9301 30.3714 23.9175 31.7194 24.815C32.535 25.3584 32.7262 25.9317 32.3775 26.8573C31.8113 28.3581 31.3632 29.902 30.8645 31.4272C32.3587 30.5916 33.7067 29.6641 34.9929 28.6579C35.6997 28.1071 36.264 28.0771 36.982 28.6373C38.2757 29.6491 39.6293 30.5822 40.9735 31.5584C41.1385 31.2174 40.9923 30.9981 40.9154 30.7658C40.5011 29.4955 40.0942 28.2232 39.6799 26.9529C39.3862 26.051 39.6343 25.3122 40.4242 24.7363C41.6972 23.8107 42.9702 22.8851 44.4757 21.7909C42.5221 21.7909 40.8517 21.7628 39.1831 21.8022C38.3319 21.8228 37.8745 21.5155 37.6307 20.6761C37.1676 19.0797 36.6089 17.5114 36.0896 15.9301L36.0934 15.9319Z" fill="white"/>
<path d="M46.3055 13.1552C46.2998 13.528 46.1011 13.7679 45.8818 13.989C44.9406 14.9352 43.9938 15.8795 43.0489 16.822C42.5971 17.2735 42.0853 17.4515 41.5828 16.955C41.0785 16.4547 41.2603 15.9395 41.7084 15.4898C42.6721 14.5211 43.6395 13.5561 44.6106 12.5949C44.9162 12.2914 45.2837 12.1209 45.7074 12.3176C46.0636 12.4825 46.2924 12.7711 46.3074 13.1571L46.3055 13.1552Z" fill="white"/>
<path d="M25.6375 13.2864C25.6206 12.4564 26.4361 11.9093 26.9817 12.3908C28.1928 13.4607 29.3196 14.6317 30.437 15.8046C30.7314 16.1138 30.6676 16.5747 30.3564 16.9157C30.0189 17.283 29.5446 17.4141 29.1865 17.0787C28.026 15.9939 26.9142 14.8565 25.8006 13.723C25.6843 13.6049 25.6731 13.3838 25.6393 13.2864H25.6375Z" fill="white"/>
<path d="M27.1992 27.8207C27.2142 28.2479 26.9854 28.5252 26.6236 28.6995C25.5325 29.2241 24.4319 29.7319 23.3445 30.264C22.7615 30.5488 22.2703 30.4289 22.0097 29.8687C21.7509 29.3141 21.9609 28.8381 22.5384 28.5646C23.6333 28.0456 24.7169 27.5041 25.8249 27.0132C26.5524 26.6909 27.2048 27.1012 27.2011 27.8207H27.1992Z" fill="white"/>
<path d="M50.0776 29.4281C50.0608 30.142 49.4646 30.601 48.8478 30.3312C47.6235 29.7991 46.4236 29.2089 45.2369 28.6018C44.7438 28.3489 44.6613 27.8542 44.9013 27.3933C45.1375 26.9361 45.5612 26.7188 46.0786 26.9605C47.2598 27.5113 48.4353 28.0753 49.6071 28.6487C49.9445 28.8135 50.0983 29.1133 50.0776 29.4281Z" fill="white"/>
<path d="M45.9548 51.3369C45.863 51.9571 45.5705 52.3374 44.9837 52.3243C44.4062 52.3112 44.0594 51.944 44.0763 51.3631C44.0931 50.831 44.4344 50.4975 44.9687 50.4769C45.5705 50.4525 45.8311 50.8572 45.9567 51.3369H45.9548Z" fill="white"/>
</svg>
