<svg width="72" height="73" viewBox="0 0 72 73" fill="none" xmlns="http://www.w3.org/2000/svg">
<rect y="0.210693" width="72" height="72" rx="20" fill="#00C9C5"/>
<path d="M57.0358 31.1634C55.2019 30.0927 53.341 29.105 51.1098 27.9513C50.6362 27.7066 50.5172 27.5113 50.5352 26.9995C50.6092 24.9546 49.3791 23.2307 47.6125 22.9007C46.4116 22.6762 45.8101 21.9579 45.0918 20.968C44.9077 20.7143 44.7169 20.4652 44.5238 20.2183C44.3936 20.0499 44.2635 19.8838 44.1378 19.7132L43.6641 19.078C41.2398 15.8299 40.9278 15.4124 37.6281 15.4124C37.3677 15.4124 37.0871 15.4124 36.7841 15.4168C36.4272 15.4191 36.0344 15.4213 35.6056 15.4213H35.1096C34.7931 15.4213 34.2656 15.4213 33.8638 15.8142C33.325 16.3417 32.6628 16.5774 31.7223 16.5774C31.3856 16.5774 31.0422 16.5482 30.7795 16.5235C30.582 16.5055 30.3845 16.4943 30.1914 16.4943C28.573 16.4943 27.1745 17.1677 26.0342 18.4988C25.7985 18.7727 25.5584 19.042 25.3182 19.3114C24.9658 19.7065 24.6021 20.115 24.2564 20.5348C24.0679 20.7637 23.9736 20.7637 23.922 20.7637C23.8456 20.7637 23.7446 20.7368 23.6189 20.6874C22.3552 20.1734 21.0443 19.711 19.8164 19.289C19.3069 19.1139 18.7928 19.0241 18.2878 19.0241C17.0464 19.0241 15.9398 19.5583 15.1744 20.5303C14.0228 21.9916 13.9847 23.8233 15.0778 25.426C15.22 25.634 15.2178 25.8248 15.0711 25.9984C13.6569 27.6841 13.6165 29.4485 14.9521 31.2442C15.0599 31.3879 15.0666 31.444 15.0666 31.444C15.0576 31.4912 14.9454 31.6416 14.8893 31.7134C13.749 33.2196 13.6906 34.847 14.7209 36.2948C14.9566 36.627 14.9499 36.7258 14.9499 36.728C14.9454 36.7438 14.8983 36.8313 14.5234 37.0468C9.58056 39.8908 7.66583 45.6575 9.96889 50.7597C11.7108 54.6138 15.4347 57.0089 19.6862 57.0089C20.9051 57.0089 22.1217 56.8047 23.2979 56.4051C29.289 54.3647 35.3183 52.2681 40.4228 50.4881C40.7168 50.3848 40.9637 50.3377 41.1994 50.3377C41.4598 50.3377 41.7157 50.396 42.0053 50.5217C43.6821 51.249 45.4442 51.9404 47.2399 52.5734C48.5194 53.0246 49.8393 53.2535 51.1614 53.2535C54.2501 53.2535 57.1727 52.0302 59.3927 49.8079C61.7228 47.4734 63.0045 44.277 63 40.7865C62.8429 36.737 60.7239 33.3183 57.0336 31.1612L57.0358 31.1634ZM51.2198 50.533C50.2344 50.533 49.2579 50.3713 48.3174 50.0526C47.433 49.7541 46.5777 49.4174 45.5878 49.0313C45.4576 48.9796 45.323 48.928 45.1883 48.8741C45.3162 48.827 45.4419 48.7799 45.5676 48.7327C46.5688 48.3556 47.433 48.0301 48.3353 47.7967C49.7181 47.4398 50.8068 46.4476 51.249 45.1389C51.653 43.9448 51.4465 42.7012 50.6811 41.7248C50.6698 41.7113 50.6609 41.7001 50.6541 41.6888C50.6811 41.6619 50.7125 41.6305 50.7394 41.6035C50.7708 41.5744 50.8023 41.5429 50.8337 41.5093C52.9033 39.406 52.9033 37.0962 50.8359 35.0064C50.7933 34.9637 50.7506 34.9233 50.708 34.8851C50.6945 34.8717 50.6766 34.8582 50.6631 34.8447C50.6631 34.8447 50.6653 34.8403 50.6676 34.838C51.3792 33.6618 51.5296 32.4227 51.1165 31.0041C51.3881 31.15 51.6597 31.2936 51.9314 31.4395C53.2849 32.1601 54.6834 32.9053 56.0077 33.7112C59.9382 36.104 61.4085 41.085 59.4242 45.2961C57.927 48.4746 54.7058 50.5285 51.2175 50.5285L51.2198 50.533ZM13.942 51.8843C12.4493 50.3399 11.6681 48.2793 11.7422 46.084C11.8185 43.8258 12.7209 41.947 14.4942 40.3577C15.3741 42.553 17.3091 42.9481 18.7412 43.0469C19.6301 43.1075 20.5392 43.2107 21.4146 43.3095C22.1419 43.3926 22.8939 43.4779 23.6391 43.5407C23.7626 43.5519 23.886 43.5564 24.005 43.5564C25.7716 43.5564 26.9142 42.4206 26.9837 40.5934C26.995 40.3151 27.0421 40.2702 27.3766 40.0906C29.2576 39.0805 29.8794 37.3139 29.0399 35.361C28.903 35.0423 28.9074 35.0266 29.1791 34.7752C30.7885 33.2869 31.0107 31.242 29.7559 29.4373C29.5315 29.114 29.527 29.1073 29.7874 28.793C30.6785 27.7245 31.013 26.4092 30.7077 25.1835C30.3934 23.9198 29.4394 22.8782 28.0881 22.326C27.5584 22.1105 27.0129 21.8861 26.867 21.7559C26.9366 21.5718 27.3204 21.1296 27.7267 20.6627C28.6426 19.6099 29.0489 19.3496 29.646 19.3069C29.3833 19.9444 29.1656 20.6133 29.2509 21.3855C29.4798 23.4596 31.1454 25.0219 33.1252 25.0219C33.4619 25.0219 33.8009 24.9748 34.1354 24.885C34.6449 24.7458 35.0961 24.6785 35.5114 24.6785C36.4856 24.6785 37.26 25.0601 37.9491 25.8816C38.4811 26.5147 39.1096 26.8199 39.8751 26.8199C40.223 26.8199 40.6046 26.7548 41.0401 26.6224C42.2298 26.261 43.4688 25.9602 44.6653 25.6706C45.002 25.5898 45.3364 25.5068 45.6731 25.4237C45.8684 25.3766 46.0592 25.3519 46.2433 25.3519C47.0132 25.3519 47.5968 25.7761 47.8011 26.49C48.0458 27.3362 47.4981 28.1443 46.47 28.4496C44.6653 28.9883 43.278 29.3901 41.9671 29.7493C40.6787 30.1039 40.5821 30.8649 40.7303 31.4418C40.8986 32.1062 41.3498 32.4721 41.9986 32.4721C42.2163 32.4721 42.4542 32.4317 42.7281 32.3486C43.6439 32.0703 44.5844 31.8054 45.4936 31.5495C45.8594 31.4463 46.2253 31.343 46.5912 31.2398C46.8449 31.1679 47.085 31.1298 47.3005 31.1298C47.9425 31.1298 48.3578 31.4463 48.5374 32.068C48.8022 32.9839 48.3668 33.765 47.4285 34.0591C46.5037 34.3487 45.5519 34.618 44.6338 34.8762C43.9918 35.058 43.3499 35.2376 42.7101 35.4284C42.2612 35.563 41.7157 35.7785 41.489 36.2656C41.3386 36.5866 41.3566 36.9615 41.5384 37.3745C41.7629 37.8886 42.1736 38.1579 42.7281 38.1579C43.0109 38.1579 43.2915 38.0883 43.5339 38.0232C44.3286 37.8078 45.1299 37.5743 45.9043 37.3498C46.4408 37.1949 46.9795 37.0378 47.5183 36.8874C47.7607 36.8201 47.9919 36.7842 48.2029 36.7842C48.8831 36.7842 49.3455 37.1298 49.5789 37.81C49.7069 38.1826 49.6844 38.5754 49.5138 38.9166C49.3185 39.3095 48.9414 39.6125 48.4543 39.7741C47.222 40.1782 45.9515 40.5485 44.7236 40.9054C44.0771 41.094 43.4329 41.2825 42.7887 41.4756C42.7079 41.5003 42.6248 41.5227 42.5418 41.5452C41.9873 41.6933 40.8313 42.0009 41.168 43.3095C41.3902 44.176 41.9424 44.3555 42.3644 44.3555C42.6787 44.3555 42.9952 44.2545 43.2758 44.167C43.3746 44.1356 43.4733 44.1041 43.5654 44.0794C44.3128 43.8819 45.0603 43.6552 45.7854 43.4375C46.1939 43.314 46.6024 43.1905 47.011 43.0738C47.3073 42.9885 47.5654 42.9436 47.7742 42.9436C48.149 42.9436 48.4431 43.0604 48.6541 43.6328C48.7573 43.9111 48.7551 44.1625 48.6541 44.3802C48.5082 44.6923 48.1513 44.9549 47.626 45.1412C45.8482 45.7697 44.0345 46.3937 42.2791 46.9953L41.0782 47.4083C39.2308 48.0436 37.3857 48.6811 35.5405 49.3208C31.1903 50.827 26.6897 52.3826 22.2497 53.8619C21.3899 54.1469 20.51 54.2928 19.6323 54.2928C17.4999 54.2928 15.4258 53.4129 13.9443 51.8798L13.942 51.8843ZM18.8557 21.8457C21.7222 22.8693 24.6425 23.9422 27.1543 24.8693C27.7155 25.0758 28.032 25.4821 28.0949 26.0747C28.0836 26.8356 27.5 27.4731 26.8131 27.4731C26.6897 27.4731 26.5662 27.4529 26.4473 27.4103C23.785 26.4922 20.9724 25.4664 17.8433 24.2744C17.4999 24.1442 17.244 23.9086 17.107 23.5988C16.9656 23.2755 16.9634 22.9029 17.1026 22.5505C17.3001 22.0477 17.749 21.7469 18.299 21.7469C18.4808 21.7469 18.6671 21.7806 18.8534 21.8479L18.8557 21.8457ZM18.0072 27.3789C18.1823 27.3789 18.3641 27.4125 18.5504 27.4776C20.932 28.3216 23.3473 29.2061 25.6841 30.0613L26.8446 30.4855C27.4619 30.7122 27.8031 31.1455 27.8569 31.774C27.8233 32.5103 27.2239 33.1275 26.537 33.1275C26.4136 33.1275 26.2901 33.1073 26.1689 33.0647C23.4079 32.1017 20.519 31.0445 17.5784 29.9199C17.2148 29.7807 16.9522 29.5428 16.8175 29.2307C16.685 28.9232 16.6895 28.5663 16.8287 28.2229C17.0487 27.6864 17.4797 27.3789 18.0072 27.3789ZM16.8309 33.7448C16.9297 33.462 17.1811 32.9884 17.749 32.9884C17.886 32.9884 18.0341 33.0153 18.1867 33.0714C20.4472 33.884 22.8759 34.7707 25.8322 35.8616C26.7009 36.1826 26.7278 36.6674 26.6538 37.0535C26.5976 37.3476 26.4473 37.6888 25.7738 37.7382C25.7245 37.7292 25.6728 37.718 25.619 37.709C25.4506 37.6776 25.2598 37.6439 25.0825 37.59L24.8378 37.5159C22.5751 36.8313 20.2339 36.1242 17.9376 35.4082C17.3899 35.2376 17.0128 34.9704 16.8444 34.6382C16.7165 34.3823 16.712 34.0815 16.8287 33.7448H16.8309ZM17.1699 38.4295C17.3158 38.2612 17.5223 38.2275 17.6682 38.2275C17.7782 38.2275 17.8949 38.2455 18.0184 38.2814C18.9948 38.5709 19.9713 38.865 20.9477 39.1568C21.7917 39.4105 22.6357 39.6641 23.482 39.9155C24.2946 40.158 24.344 40.3173 24.2699 40.6495C24.2272 40.8403 24.1958 40.8403 24.0387 40.8403C23.9556 40.8403 23.8703 40.8314 23.7873 40.8246C23.6795 40.8157 23.574 40.8067 23.473 40.8067C23.4371 40.8067 23.4034 40.8067 23.3675 40.8112C22.8737 40.7595 22.3866 40.7079 21.9017 40.6563C20.6761 40.5283 19.5201 40.4071 18.3416 40.2724C17.5021 40.1759 17.1026 39.8549 17.0105 39.195C16.9656 38.874 17.0217 38.6024 17.1699 38.4318V38.4295ZM39.8391 18.5841C40.7864 19.7895 41.7022 20.9972 42.6742 22.2789C42.9032 22.5819 43.1366 22.8872 43.3701 23.1947C43.1927 23.2396 43.0176 23.2823 42.8426 23.3249C41.9043 23.5561 41.0154 23.7739 40.1287 24.0118C40.0883 24.023 40.0501 24.0275 40.0165 24.0275C39.8683 24.0275 39.7426 23.913 39.5384 23.6729C38.4901 22.4383 37.2779 21.8389 35.8324 21.8389C35.1904 21.8389 34.517 21.9579 33.7785 22.2003C33.5585 22.2722 33.3542 22.3081 33.1679 22.3081C32.6539 22.3081 32.2835 22.0185 32.068 21.4484C31.7941 20.7188 32.1578 20.3395 32.8806 19.6773C34.0837 18.5729 35.5495 18.0589 37.4934 18.0589C37.8885 18.0589 38.3038 18.0791 38.7684 18.1195C39.278 18.1644 39.6304 18.317 39.8391 18.5841Z" fill="white"/>
</svg>
