<svg width="51" height="40" viewBox="0 0 51 40" fill="none" xmlns="http://www.w3.org/2000/svg">
<path d="M41.8084 32.7053C40.0887 32.7865 38.5649 32.2973 37.1412 31.4087C34.7923 29.9453 32.4565 29.9783 30.0728 31.4087C27.0448 33.2297 23.958 33.2472 20.9212 31.4131C18.5484 29.9783 16.2235 29.9629 13.8485 31.3955C10.814 33.2297 7.74238 33.2341 4.69693 31.4285C3.61066 30.7834 2.47433 30.3754 1.21827 30.3183C0.443298 30.2832 -0.0290854 29.9278 0.00139091 29.1051C0.0340442 28.2604 0.591326 27.9401 1.33147 28.0322C2.11079 28.1288 2.72032 27.8501 3.36032 27.4684C7.69014 24.8817 12.0178 22.2885 16.3846 19.7676C17.2488 19.2674 17.2902 18.8791 16.7895 18.1068C16.156 17.1327 15.6075 16.0972 15.0741 15.0616C13.7745 12.5386 14.6431 9.7106 17.1922 8.47321C22.7977 5.75053 28.4249 3.07391 34.0652 0.42363C36.2334 -0.594361 38.6476 0.291993 39.6076 2.33675C40.5872 4.42538 39.7774 6.77071 37.6049 7.88743C33.865 9.81152 30.1077 11.7005 26.3373 13.5676C25.6712 13.8966 25.5232 14.138 25.9825 14.8049C28.856 18.9734 31.6881 23.1704 34.5442 27.3521C34.7423 27.6417 34.862 28.0257 35.2821 28.1068C36.6949 28.3833 37.8639 29.2148 39.1439 29.8006C41.188 30.7396 43.2365 30.5816 45.1652 29.3771C46.4517 28.5719 47.8231 28.0629 49.3491 28.0191C50.1611 27.9949 50.9513 28.03 51.0014 29.1073C51.0471 30.088 50.3853 30.2876 49.5668 30.3359C48.4305 30.4039 47.3747 30.7527 46.3995 31.3736C44.991 32.2687 43.4716 32.8041 41.8128 32.7031L41.8084 32.7053ZM5.30428 29.0502C7.72497 30.6628 10.1021 30.8997 12.4793 29.4671C15.7511 27.4969 18.9446 27.4837 22.2143 29.4495C24.3847 30.7549 26.616 30.7286 28.8015 29.4364C29.5221 29.0107 30.2383 28.5127 31.0503 28.3745C32.2497 28.1705 31.9798 27.7426 31.4726 27.0098C28.9234 23.3284 26.4113 19.6206 23.8927 15.9195C22.5626 13.9625 22.8935 12.6834 24.9942 11.6237C28.7776 9.71279 32.5654 7.81284 36.3444 5.89752C37.5657 5.27883 37.9597 4.3464 37.4677 3.34377C36.9931 2.37843 36.0201 2.08664 34.862 2.63732C29.3327 5.26128 23.8078 7.88962 18.2916 10.5443C16.8309 11.2486 16.4216 12.5781 17.1726 14.0173C17.6929 15.0177 18.2698 15.9897 18.8249 16.9726C20.2246 19.4473 20.0069 20.3117 17.608 21.7378C13.559 24.1468 9.50566 26.5513 5.29992 29.0524L5.30428 29.0502Z" fill="white"/>
<path d="M41.6538 39.9366C40.0974 39.9125 38.6127 39.4978 37.2565 38.6597C34.7858 37.1327 32.3825 37.2139 29.8921 38.7036C26.9708 40.45 23.9493 40.4324 21.0322 38.6663C18.5419 37.1569 16.1713 37.1788 13.6765 38.6839C10.7225 40.4632 7.68794 40.4083 4.72303 38.6356C3.6433 37.9884 2.52438 37.5342 1.25308 37.5189C0.478109 37.5101 -0.00298169 37.1503 0.00137208 36.3363C0.00572584 35.5026 0.563008 35.1648 1.29009 35.1736C2.83785 35.1911 4.29636 35.5926 5.61555 36.4351C8.02971 37.9796 10.4156 37.9291 12.8711 36.457C15.8687 34.658 18.9337 34.6843 21.9269 36.4855C24.3019 37.9138 26.6181 37.9423 28.9996 36.525C31.9928 34.7413 35.0557 34.6646 38.0663 36.4351C40.6046 37.927 43.0536 37.9423 45.5309 36.3561C46.7194 35.5948 48.0495 35.2569 49.4427 35.1736C50.2329 35.1275 50.9448 35.3184 50.997 36.2837C51.0471 37.2359 50.4354 37.5167 49.5886 37.5299C48.3978 37.5496 47.3312 37.9818 46.3298 38.6115C44.9126 39.5 43.3627 39.9322 41.656 39.9388L41.6538 39.9366Z" fill="white"/>
<path d="M41.508 10.0331C46.1034 10.02 49.8411 13.7146 49.8737 18.2999C49.9064 22.9313 46.1448 26.7532 41.5515 26.7554C36.9953 26.7554 33.3011 23.0235 33.2772 18.3986C33.2554 13.754 36.9017 10.0463 41.5058 10.0331H41.508ZM41.5537 24.3574C44.8778 24.3574 47.4879 21.7378 47.4944 18.403C47.5009 15.0858 44.8778 12.3872 41.6125 12.3499C38.3428 12.3148 35.5716 15.0924 35.576 18.4008C35.5803 21.672 38.2775 24.3596 41.5559 24.3574H41.5537Z" fill="white"/>
</svg>
