<svg width="54" height="42" viewBox="0 0 54 42" fill="none" xmlns="http://www.w3.org/2000/svg">
<path d="M48.0358 15.7511C46.2019 14.6804 44.341 13.6927 42.1098 12.5389C41.6362 12.2942 41.5172 12.0989 41.5352 11.5872C41.6092 9.54223 40.3791 7.8183 38.6125 7.48833C37.4116 7.26386 36.8101 6.54555 36.0918 5.55564C35.9077 5.30199 35.7169 5.05282 35.5238 4.80591C35.3936 4.63756 35.2635 4.47145 35.1378 4.30085L34.6641 3.6656C32.2398 0.417515 31.9278 0 28.6281 0C28.3677 0 28.0871 0 27.7841 0.0044894C27.4272 0.00673411 27.0344 0.00897881 26.6056 0.00897881H26.1096C25.7931 0.00897881 25.2656 0.0089788 24.8638 0.401802C24.325 0.929307 23.6628 1.165 22.7223 1.165C22.3856 1.165 22.0422 1.13582 21.7795 1.11113C21.582 1.09317 21.3845 1.08195 21.1914 1.08195C19.573 1.08195 18.1745 1.75536 17.0342 3.08647C16.7985 3.36032 16.5584 3.62968 16.3182 3.89905C15.9658 4.29412 15.6021 4.70265 15.2564 5.12241C15.0679 5.35137 14.9736 5.35137 14.922 5.35137C14.8456 5.35137 14.7446 5.32443 14.6189 5.27505C13.3552 4.76101 12.0443 4.29861 10.8164 3.8766C10.3069 3.70151 9.79282 3.61173 9.28776 3.61173C8.04644 3.61173 6.9398 4.14597 6.17436 5.11792C5.02283 6.57922 4.98467 8.4109 6.07784 10.0136C6.22 10.2216 6.21776 10.4124 6.0711 10.586C4.65694 12.2718 4.61653 14.0361 5.95213 15.8319C6.05988 15.9755 6.06661 16.0317 6.06661 16.0317C6.05763 16.0788 5.9454 16.2292 5.88928 16.301C4.74897 17.8072 4.69061 19.4346 5.72093 20.8825C5.95662 21.2147 5.94989 21.3134 5.94989 21.3157C5.9454 21.3314 5.89826 21.4189 5.52339 21.6344C0.580559 24.4785 -1.33417 30.2451 0.968893 35.3473C2.71078 39.2015 6.43474 41.5966 10.6862 41.5966C11.9051 41.5966 13.1217 41.3923 14.2979 40.9928C20.289 38.9523 26.3183 36.8558 31.4228 35.0757C31.7168 34.9725 31.9637 34.9253 32.1994 34.9253C32.4598 34.9253 32.7157 34.9837 33.0053 35.1094C34.6821 35.8367 36.4442 36.528 38.2399 37.161C39.5194 37.6122 40.8393 37.8412 42.1614 37.8412C45.2501 37.8412 48.1727 36.6178 50.3927 34.3956C52.7228 32.0611 54.0045 28.8646 54 25.3741C53.8429 21.3247 51.7239 17.906 48.0336 15.7488L48.0358 15.7511ZM42.2198 35.1206C41.2344 35.1206 40.2579 34.959 39.3174 34.6403C38.433 34.3417 37.5777 34.005 36.5878 33.6189C36.4576 33.5673 36.323 33.5157 36.1883 33.4618C36.3162 33.4146 36.4419 33.3675 36.5676 33.3204C37.5688 32.9433 38.433 32.6178 39.3353 32.3843C40.7181 32.0274 41.8068 31.0353 42.249 29.7266C42.653 28.5324 42.4465 27.2888 41.6811 26.3124C41.6698 26.2989 41.6609 26.2877 41.6541 26.2765C41.6811 26.2495 41.7125 26.2181 41.7394 26.1912C41.7708 26.162 41.8023 26.1306 41.8337 26.0969C43.9033 23.9936 43.9033 21.6838 41.8359 19.594C41.7933 19.5514 41.7506 19.511 41.708 19.4728C41.6945 19.4593 41.6766 19.4459 41.6631 19.4324C41.6631 19.4324 41.6653 19.4279 41.6676 19.4257C42.3792 18.2494 42.5296 17.0104 42.1165 15.5917C42.3881 15.7376 42.6597 15.8813 42.9314 16.0272C44.2849 16.7477 45.6834 17.493 47.0077 18.2988C50.9382 20.6917 52.4085 25.6727 50.4242 29.8837C48.927 33.0622 45.7058 35.1161 42.2175 35.1161L42.2198 35.1206ZM4.94202 36.4719C3.44929 34.9276 2.66813 32.8669 2.74221 30.6716C2.81853 28.4134 3.7209 26.5346 5.49421 24.9454C6.37414 27.1407 8.30907 27.5358 9.74119 27.6345C10.6301 27.6951 11.5392 27.7984 12.4146 27.8972C13.1419 27.9802 13.8939 28.0655 14.6391 28.1284C14.7626 28.1396 14.886 28.1441 15.005 28.1441C16.7716 28.1441 17.9142 27.0083 17.9837 25.1811C17.995 24.9027 18.0421 24.8578 18.3766 24.6783C20.2576 23.6681 20.8794 21.9016 20.0399 19.9487C19.903 19.6299 19.9074 19.6142 20.1791 19.3628C21.7885 17.8746 22.0107 15.8296 20.7559 14.0249C20.5315 13.7017 20.527 13.6949 20.7874 13.3807C21.6785 12.3122 22.013 10.9968 21.7077 9.77119C21.3934 8.50742 20.4394 7.46588 19.0881 6.91368C18.5584 6.69819 18.0129 6.47372 17.867 6.34353C17.9366 6.15946 18.3204 5.71726 18.7267 5.25036C19.6426 4.19759 20.0489 3.93721 20.646 3.89456C20.3833 4.53205 20.1656 5.20098 20.2509 5.97315C20.4798 8.04726 22.1454 9.60957 24.1252 9.60957C24.4619 9.60957 24.8009 9.56243 25.1354 9.47264C25.6449 9.33347 26.0961 9.26613 26.5114 9.26613C27.4856 9.26613 28.26 9.64773 28.9491 10.4693C29.4811 11.1023 30.1096 11.4076 30.8751 11.4076C31.223 11.4076 31.6046 11.3425 32.0401 11.21C33.2298 10.8486 34.4688 10.5479 35.6653 10.2583C36.002 10.1775 36.3364 10.0944 36.6731 10.0114C36.8684 9.96423 37.0592 9.93954 37.2433 9.93954C38.0132 9.93954 38.5968 10.3638 38.8011 11.0776C39.0458 11.9239 38.4981 12.732 37.47 13.0372C35.6653 13.576 34.278 13.9778 32.9671 14.3369C31.6787 14.6916 31.5821 15.4525 31.7303 16.0294C31.8986 16.6939 32.3498 17.0597 32.9986 17.0597C33.2163 17.0597 33.4542 17.0193 33.7281 16.9363C34.6439 16.6579 35.5844 16.3931 36.4936 16.1372C36.8594 16.0339 37.2253 15.9307 37.5912 15.8274C37.8449 15.7556 38.085 15.7174 38.3005 15.7174C38.9425 15.7174 39.3578 16.0339 39.5374 16.6557C39.8022 17.5715 39.3668 18.3527 38.4285 18.6467C37.5037 18.9363 36.5519 19.2057 35.6338 19.4638C34.9918 19.6456 34.3499 19.8252 33.7101 20.016C33.2612 20.1507 32.7157 20.3662 32.489 20.8533C32.3386 21.1743 32.3566 21.5491 32.5384 21.9622C32.7629 22.4762 33.1736 22.7456 33.7281 22.7456C34.0109 22.7456 34.2915 22.676 34.5339 22.6109C35.3286 22.3954 36.1299 22.1619 36.9043 21.9375C37.4408 21.7826 37.9795 21.6255 38.5183 21.4751C38.7607 21.4077 38.9919 21.3718 39.2029 21.3718C39.8831 21.3718 40.3455 21.7175 40.5789 22.3976C40.7069 22.7703 40.6844 23.1631 40.5138 23.5043C40.3185 23.8971 39.9414 24.2001 39.4543 24.3618C38.222 24.7658 36.9515 25.1362 35.7236 25.4931C35.0771 25.6816 34.4329 25.8702 33.7887 26.0632C33.7079 26.0879 33.6248 26.1104 33.5418 26.1328C32.9873 26.281 31.8313 26.5885 32.168 27.8972C32.3902 28.7636 32.9424 28.9432 33.3644 28.9432C33.6787 28.9432 33.9952 28.8422 34.2758 28.7546C34.3746 28.7232 34.4733 28.6918 34.5654 28.6671C35.3128 28.4696 36.0603 28.2428 36.7854 28.0251C37.1939 27.9017 37.6024 27.7782 38.011 27.6615C38.3073 27.5762 38.5654 27.5313 38.7742 27.5313C39.149 27.5313 39.4431 27.648 39.6541 28.2204C39.7573 28.4987 39.7551 28.7501 39.6541 28.9679C39.5082 29.2799 39.1513 29.5425 38.626 29.7288C36.8482 30.3574 35.0345 30.9814 33.2791 31.583L32.0782 31.996C30.2308 32.6312 28.3857 33.2687 26.5405 33.9085C22.1903 35.4147 17.6897 36.9702 13.2497 38.4495C12.3899 38.7346 11.51 38.8805 10.6323 38.8805C8.49987 38.8805 6.42576 38.0006 4.94426 36.4674L4.94202 36.4719ZM9.85567 6.43332C12.7222 7.4569 15.6425 8.52987 18.1543 9.45693C18.7155 9.66344 19.032 10.0697 19.0949 10.6623C19.0836 11.4233 18.5 12.0608 17.8131 12.0608C17.6897 12.0608 17.5662 12.0406 17.4473 11.9979C14.785 11.0799 11.9724 10.054 8.84331 8.86209C8.49987 8.73189 8.24397 8.4962 8.10705 8.18643C7.96563 7.86319 7.96339 7.49057 8.10256 7.13815C8.30009 6.63534 8.74903 6.33455 9.29898 6.33455C9.4808 6.33455 9.66712 6.36822 9.85343 6.43556L9.85567 6.43332ZM9.00717 11.9665C9.18226 11.9665 9.36408 12.0002 9.55039 12.0653C11.932 12.9093 14.3473 13.7937 16.6841 14.6489L17.8446 15.0732C18.4619 15.2999 18.8031 15.7331 18.8569 16.3616C18.8233 17.0979 18.2239 17.7152 17.537 17.7152C17.4136 17.7152 17.2901 17.695 17.1689 17.6523C14.4079 16.6894 11.519 15.6321 8.57843 14.5075C8.21479 14.3683 7.95216 14.1304 7.81748 13.8184C7.68504 13.5109 7.68953 13.154 7.8287 12.8105C8.04868 12.274 8.47967 11.9665 9.00717 11.9665ZM7.83095 18.3325C7.92972 18.0497 8.18112 17.576 8.74903 17.576C8.88596 17.576 9.03411 17.603 9.18675 17.6591C11.4472 18.4717 13.8759 19.3583 16.8322 20.4492C17.7009 20.7702 17.7278 21.2551 17.6538 21.6412C17.5976 21.9352 17.4473 22.2764 16.7738 22.3258C16.7245 22.3168 16.6728 22.3056 16.619 22.2966C16.4506 22.2652 16.2598 22.2315 16.0825 22.1777L15.8378 22.1036C13.5751 21.419 11.2339 20.7119 8.93759 19.9958C8.38988 19.8252 8.01277 19.5581 7.84442 19.2259C7.71647 18.97 7.71198 18.6692 7.8287 18.3325H7.83095ZM8.1699 23.0172C8.3158 22.8488 8.52232 22.8152 8.66822 22.8152C8.77821 22.8152 8.89494 22.8331 9.0184 22.869C9.99484 23.1586 10.9713 23.4527 11.9477 23.7445C12.7917 23.9981 13.6357 24.2518 14.482 24.5032C15.2946 24.7456 15.344 24.905 15.2699 25.2372C15.2272 25.428 15.1958 25.428 15.0387 25.428C14.9556 25.428 14.8703 25.419 14.7873 25.4123C14.6795 25.4033 14.574 25.3943 14.473 25.3943C14.4371 25.3943 14.4034 25.3943 14.3675 25.3988C13.8737 25.3472 13.3866 25.2956 12.9017 25.2439C11.6761 25.116 10.5201 24.9948 9.34163 24.8601C8.50212 24.7636 8.10256 24.4426 8.01052 23.7826C7.96563 23.4616 8.02175 23.19 8.1699 23.0194V23.0172ZM30.8391 3.17176C31.7864 4.37717 32.7022 5.58482 33.6742 6.86654C33.9032 7.16958 34.1366 7.47486 34.3701 7.78238C34.1927 7.82728 34.0176 7.86993 33.8426 7.91258C32.9043 8.14378 32.0154 8.36152 31.1287 8.59945C31.0883 8.61068 31.0501 8.61517 31.0165 8.61517C30.8683 8.61517 30.7426 8.50069 30.5384 8.2605C29.4901 7.02592 28.2779 6.42658 26.8324 6.42658C26.1904 6.42658 25.517 6.54555 24.7785 6.78798C24.5585 6.85981 24.3542 6.89573 24.1679 6.89573C23.6539 6.89573 23.2835 6.60616 23.068 6.036C22.7941 5.30648 23.1578 4.92712 23.8806 4.26493C25.0837 3.16054 26.5495 2.6465 28.4934 2.6465C28.8885 2.6465 29.3038 2.66671 29.7684 2.70711C30.278 2.75201 30.6304 2.90464 30.8391 3.17176Z" fill="white"/>
</svg>
