<svg width="48" height="48" viewBox="0 0 48 48" fill="none" xmlns="http://www.w3.org/2000/svg">
<path d="M24.0015 47.9999C16.5059 47.9999 9.01039 47.9999 1.51486 47.9999C0.221229 47.9999 0 47.7769 0 46.4785C0 41.6088 0 36.741 0 31.8713C0 30.6235 0.230603 30.3855 1.45299 30.3855C5.35636 30.3836 9.26162 30.3612 13.165 30.4042C13.928 30.4117 14.108 30.1775 14.0762 29.4637C14.0218 28.2495 14.0368 27.0298 14.0724 25.8137C14.0874 25.2835 13.9205 25.1055 13.3881 25.1317C12.6438 25.1692 11.7214 25.276 11.7664 24.1462C11.8095 23.095 12.7057 23.2674 13.4087 23.2655C20.4674 23.2618 27.5242 23.2637 34.583 23.2637C34.8023 23.2637 35.0198 23.2637 35.2391 23.2637C35.8747 23.273 36.259 23.5859 36.2459 24.2305C36.2347 24.8263 35.8578 25.0961 35.271 25.1411C33.9361 25.246 33.938 25.2554 33.938 26.5538C33.938 27.4907 33.9905 28.4313 33.9211 29.3625C33.863 30.155 34.058 30.4174 34.9223 30.4061C38.7938 30.3499 42.6672 30.3799 46.5406 30.3836C47.7667 30.3836 47.9973 30.6197 47.9992 31.8657C47.9992 36.7654 48.001 41.6669 47.9992 46.5666C47.9992 47.7413 47.7461 47.9962 46.5818 47.9962C39.0544 47.998 31.5289 47.9962 24.0015 47.9962V47.9999ZM15.9397 35.5943C15.9397 38.7477 15.966 41.903 15.921 45.0564C15.9097 45.8714 16.0728 46.16 16.969 46.1487C21.2492 46.0963 25.5294 46.1244 29.8115 46.1244C31.3039 46.1244 32.0532 45.3936 32.0594 43.9322C32.0594 43.8066 32.0613 43.683 32.0594 43.5574C32.0519 42.9298 32.3313 42.5138 32.9818 42.5044C33.6287 42.4951 33.9324 42.8923 33.9343 43.5256C33.9361 44.1195 33.9793 44.7154 33.9249 45.3037C33.863 45.9595 34.0842 46.1431 34.7479 46.1375C38.2463 46.1038 41.7466 46.1038 45.2469 46.1375C45.9294 46.145 46.145 45.9951 46.1375 45.2718C46.1 41.2135 46.0981 37.1532 46.1375 33.093C46.145 32.3435 45.8862 32.2367 45.2301 32.2442C42.2303 32.276 39.2306 32.2592 36.2309 32.2592C33.9511 32.2592 33.9418 32.2592 33.9399 34.4964C33.9399 35.2102 33.878 35.8885 32.9631 35.8716C32.1119 35.8548 32.0482 35.2046 32.0501 34.5263C32.0613 31.654 32.0369 28.7798 32.0688 25.9074C32.0744 25.2985 31.9076 25.1205 31.2908 25.1242C26.4481 25.1486 21.6036 25.1505 16.7609 25.1242C16.1197 25.1205 15.9116 25.2685 15.9191 25.9412C15.9547 29.1564 15.936 32.3735 15.936 35.5906L15.9397 35.5943ZM14.0612 39.2855C14.0612 37.1963 14.0368 35.1053 14.0762 33.0161C14.0874 32.3847 13.8774 32.2442 13.2831 32.2479C9.7247 32.2723 6.16816 32.2723 2.60975 32.2479C2.05293 32.2442 1.8617 32.3716 1.86545 32.9674C1.89169 37.1157 1.89169 41.2641 1.86545 45.4124C1.8617 46.0082 2.05293 46.1356 2.60975 46.1319C6.16816 46.1094 9.7247 46.1075 13.2831 46.1319C13.8774 46.1356 14.0893 45.9951 14.0762 45.3637C14.0368 43.3363 14.0612 41.309 14.0612 39.2817V39.2855Z" fill="white"/>
<path d="M17.794 7.69343C18.3564 7.69343 18.9282 7.62785 19.4794 7.70842C20.415 7.8452 20.7899 7.43486 21.0074 6.5711C21.3036 5.39631 21.7273 4.25337 22.1173 3.1048C22.451 2.11551 23.1466 1.54029 24.0109 1.58713C24.9914 1.63959 25.6045 2.17734 25.8969 3.12354C26.3019 4.43137 26.7706 5.72045 27.1587 7.03202C27.3087 7.53979 27.5393 7.71966 28.0736 7.70655C29.4779 7.67095 30.884 7.7028 32.2901 7.69343C33.25 7.68594 33.9193 8.11313 34.2174 9.01624C34.5192 9.92685 34.2005 10.6744 33.445 11.2309C32.3651 12.0254 31.2964 12.8442 30.1715 13.5711C29.5472 13.9759 29.4947 14.3562 29.746 15.0157C30.2109 16.2355 30.5746 17.4927 30.9608 18.7406C31.2721 19.7449 31.0321 20.5169 30.2597 21.0452C29.4554 21.5942 28.6736 21.4781 27.9199 20.9272C26.81 20.1196 25.6813 19.3364 24.5996 18.4914C24.1384 18.1317 23.829 18.1616 23.3828 18.5102C22.3235 19.3327 21.2136 20.0878 20.1356 20.8878C19.3519 21.4687 18.5551 21.6092 17.7209 21.0302C16.9353 20.485 16.7216 19.7056 17.0665 18.6263C17.4828 17.3222 17.9121 16.0219 18.3564 14.7291C18.5064 14.2925 18.4577 14.0077 18.0396 13.7229C16.8791 12.9341 15.7504 12.0984 14.6199 11.2665C13.765 10.637 13.4781 9.84254 13.7894 8.99563C14.1193 8.09815 14.7793 7.67657 15.7354 7.69343C16.4216 7.70655 17.1097 7.69531 17.7977 7.69343H17.794ZM24.0934 3.72124C24.0259 3.73061 23.9584 3.73998 23.8909 3.74935C23.3697 5.34197 22.8241 6.9271 22.3423 8.53096C22.1192 9.27481 21.7142 9.61957 20.9305 9.58772C20.1206 9.55399 19.3088 9.56336 18.497 9.58397C17.5952 9.60833 16.6841 9.49028 15.6492 9.67953C17.0853 10.7194 18.3714 11.7068 19.7194 12.6043C20.535 13.1477 20.7262 13.721 20.3775 14.6466C19.8113 16.1474 19.3632 17.6914 18.8645 19.2165C20.3587 18.3809 21.7067 17.4534 22.9929 16.4472C23.6997 15.8964 24.264 15.8664 24.982 16.4266C26.2757 17.4384 27.6293 18.3715 28.9735 19.3477C29.1385 19.0067 28.9923 18.7875 28.9154 18.5551C28.5011 17.2848 28.0942 16.0125 27.6799 14.7422C27.3862 13.8403 27.6343 13.1015 28.4242 12.5256C29.6972 11.6 30.9702 10.6744 32.4757 9.58022C30.5221 9.58022 28.8517 9.55212 27.1831 9.59146C26.3319 9.61207 25.8745 9.30479 25.6307 8.46538C25.1676 6.86902 24.6089 5.30075 24.0896 3.71937L24.0934 3.72124Z" fill="white"/>
<path d="M34.3055 0.944484C34.2998 1.31735 34.1011 1.55718 33.8818 1.77827C32.9406 2.72447 31.9938 3.66881 31.0489 4.61126C30.5971 5.06282 30.0853 5.24082 29.5828 4.74429C29.0785 4.24402 29.2603 3.72876 29.7084 3.27908C30.6721 2.31039 31.6395 1.34545 32.6106 0.384256C32.9162 0.0807208 33.2837 -0.0897835 33.7074 0.106952C34.0636 0.271835 34.2924 0.560381 34.3074 0.946358L34.3055 0.944484Z" fill="white"/>
<path d="M13.6375 1.07572C13.6206 0.24568 14.4361 -0.301432 14.9817 0.180102C16.1928 1.24997 17.3196 2.42102 18.437 3.59394C18.7314 3.90309 18.6676 4.36402 18.3564 4.70502C18.0189 5.07226 17.5446 5.20342 17.1865 4.86803C16.026 3.78318 14.9142 2.64586 13.8006 1.51228C13.6843 1.39424 13.6731 1.17315 13.6393 1.07572H13.6375Z" fill="white"/>
<path d="M15.1992 15.61C15.2142 16.0372 14.9854 16.3145 14.6236 16.4888C13.5325 17.0134 12.4319 17.5212 11.3445 18.0533C10.7615 18.3381 10.2703 18.2182 10.0097 17.658C9.75095 17.1034 9.96093 16.6274 10.5384 16.3539C11.6333 15.8349 12.7169 15.2934 13.8249 14.8025C14.5524 14.4802 15.2048 14.8905 15.2011 15.61H15.1992Z" fill="white"/>
<path d="M38.0776 17.2174C38.0608 17.9313 37.4646 18.3903 36.8478 18.1205C35.6235 17.5884 34.4236 16.9982 33.2369 16.3911C32.7438 16.1382 32.6613 15.6435 32.9013 15.1826C33.1375 14.7254 33.5612 14.5081 34.0786 14.7498C35.2598 15.3006 36.4353 15.8646 37.6071 16.438C37.9445 16.6028 38.0983 16.9026 38.0776 17.2174Z" fill="white"/>
<path d="M33.9548 39.1262C33.863 39.7464 33.5705 40.1267 32.9837 40.1136C32.4062 40.1005 32.0594 39.7333 32.0763 39.1524C32.0931 38.6203 32.4344 38.2868 32.9687 38.2662C33.5705 38.2418 33.8311 38.6465 33.9567 39.1262H33.9548Z" fill="white"/>
</svg>
