<svg width="96" height="96" viewBox="0 0 96 96" fill="none" xmlns="http://www.w3.org/2000/svg">
<path d="M48 88C25.9086 88 8 70.0912 8 48C8 25.9086 25.9086 8 48 8C70.0912 8 88 25.9086 88 48C88 70.0912 70.0912 88 48 88ZM42.4876 33.6584C42.2248 33.4831 41.916 33.3896 41.6 33.3896C40.7164 33.3896 40 34.106 40 34.9896V61.0104C40 61.3264 40.0936 61.6352 40.2688 61.898C40.7588 62.6332 41.7524 62.832 42.4876 62.3416L62.0032 49.3312C62.1788 49.214 62.3296 49.0632 62.4468 48.8876C62.9372 48.1524 62.7384 47.1588 62.0032 46.6688L42.4876 33.6584Z" fill="#FE4E05"/>
</svg>
