<svg width="72" height="73" viewBox="0 0 72 73" fill="none" xmlns="http://www.w3.org/2000/svg">
<rect y="0.210693" width="72" height="72" rx="20" fill="#FE4E05"/>
<path d="M52.3066 48.9149C50.5868 48.9961 49.063 48.5069 47.6393 47.6183C45.2905 46.1549 42.9547 46.1879 40.571 47.6183C37.543 49.4393 34.4562 49.4568 31.4194 47.6227C29.0466 46.1879 26.7217 46.1725 24.3467 47.6051C21.3121 49.4393 18.2406 49.4437 15.1951 47.6381C14.1088 46.993 12.9725 46.585 11.7164 46.5279C10.9415 46.4928 10.4691 46.1374 10.4996 45.3147C10.5322 44.47 11.0895 44.1497 11.8296 44.2418C12.609 44.3384 13.2185 44.0597 13.8585 43.678C18.1883 41.0913 22.516 38.4981 26.8828 35.9772C27.747 35.477 27.7884 35.0887 27.2877 34.3164C26.6542 33.3423 26.1056 32.3068 25.5723 31.2712C24.2727 28.7482 25.1413 25.9202 27.6904 24.6828C33.2959 21.9601 38.9231 19.2835 44.5634 16.6332C46.7316 15.6152 49.1457 16.5016 50.1058 18.5463C51.0854 20.635 50.2756 22.9803 48.103 24.097C44.3631 26.0211 40.6058 27.9101 36.8355 29.7771C36.1694 30.1062 36.0213 30.3476 36.4807 31.0145C39.3541 35.183 42.1863 39.38 45.0423 43.5617C45.2404 43.8513 45.3602 44.2352 45.7803 44.3164C47.1931 44.5929 48.3621 45.4244 49.6421 46.0101C51.6862 46.9492 53.7346 46.7912 55.6633 45.5867C56.9499 44.7815 58.3213 44.2725 59.8473 44.2287C60.6593 44.2045 61.4495 44.2396 61.4996 45.3169C61.5453 46.2976 60.8835 46.4972 60.065 46.5455C58.9287 46.6135 57.8729 46.9623 56.8976 47.5832C55.4892 48.4783 53.9697 49.0137 52.3109 48.9127L52.3066 48.9149ZM15.8024 45.2598C18.2231 46.8724 20.6003 47.1093 22.9775 45.6767C26.2493 43.7065 29.4428 43.6933 32.7125 45.6591C34.8828 46.9645 37.1141 46.9382 39.2997 45.646C40.0203 45.2203 40.7365 44.7223 41.5484 44.5841C42.7479 44.38 42.478 43.9522 41.9707 43.2194C39.4216 39.538 36.9095 35.8302 34.3908 32.1291C33.0608 30.1721 33.3917 28.893 35.4923 27.8333C39.2758 25.9224 43.0635 24.0224 46.8426 22.1071C48.0638 21.4884 48.4579 20.556 47.9659 19.5534C47.4913 18.588 46.5183 18.2962 45.3601 18.8469C39.8309 21.4709 34.3059 24.0992 28.7897 26.7539C27.329 27.4581 26.9198 28.7877 27.6708 30.2269C28.1911 31.2273 28.768 32.1993 29.3231 33.1821C30.7228 35.6569 30.5051 36.5213 28.1062 37.9474C24.0572 40.3563 20.0038 42.7609 15.7981 45.262L15.8024 45.2598Z" fill="white"/>
<path d="M52.152 56.1462C50.5955 56.1221 49.1109 55.7074 47.7547 54.8693C45.2839 53.3423 42.8807 53.4235 40.3903 54.9132C37.4689 56.6596 34.4474 56.642 31.5304 54.8759C29.0401 53.3665 26.6694 53.3884 24.1747 54.8935C21.2207 56.6727 18.1861 56.6179 15.2212 54.8452C14.1415 54.198 13.0225 53.7438 11.7512 53.7285C10.9763 53.7197 10.4952 53.3599 10.4995 52.5459C10.5039 51.7122 11.0612 51.3744 11.7883 51.3831C13.336 51.4007 14.7945 51.8022 16.1137 52.6447C18.5279 54.1892 20.9137 54.1387 23.3693 52.6666C26.3668 50.8676 29.4319 50.8939 32.4251 52.6951C34.8001 54.1234 37.1163 54.1519 39.4978 52.7346C42.491 50.9509 45.5539 50.8742 48.5645 52.6447C51.1027 54.1365 53.5517 54.1519 56.029 52.5657C57.2176 51.8044 58.5477 51.4665 59.9409 51.3831C60.7311 51.3371 61.4429 51.5279 61.4952 52.4933C61.5453 53.4455 60.9336 53.7263 60.0867 53.7394C58.896 53.7592 57.8293 54.1914 56.828 54.8211C55.4108 55.7096 53.8609 56.1418 52.1542 56.1484L52.152 56.1462Z" fill="white"/>
<path d="M52.0062 26.2427C56.6016 26.2295 60.3393 29.9241 60.3719 34.5095C60.4046 39.1409 56.6429 42.9628 52.0497 42.965C47.4935 42.965 43.7993 39.2331 43.7754 34.6082C43.7536 29.9636 47.3999 26.2559 52.004 26.2427H52.0062ZM52.0519 40.567C55.376 40.567 57.9861 37.9474 57.9926 34.6126C57.9991 31.2954 55.376 28.5968 52.1107 28.5595C48.841 28.5244 46.0698 31.3019 46.0742 34.6104C46.0785 37.8816 48.7757 40.5692 52.054 40.567H52.0519Z" fill="white"/>
</svg>
