<svg width="72" height="72" viewBox="0 0 72 72" fill="none" xmlns="http://www.w3.org/2000/svg">
<g clip-path="url(#clip0_118_1329)">
<rect width="72" height="72" fill="#0077FF"/>
<path d="M37.7685 48.6004C24.2387 48.6004 16.5216 39.1409 16.2 23.4004H22.9773C23.1999 34.9535 28.1963 39.8472 32.1538 40.8562V23.4004H38.5353V33.3644C42.4434 32.9355 46.5493 28.395 47.9344 23.4004H54.3159C53.794 25.9907 52.7535 28.4434 51.2597 30.6049C49.7658 32.7664 47.8507 34.5903 45.6341 35.9626C48.1084 37.2164 50.2938 38.9911 52.0461 41.1695C53.7985 43.348 55.0779 45.8806 55.8 48.6004H48.7754C48.1272 46.2381 46.8097 44.1234 44.9881 42.5215C43.1665 40.9195 40.9218 39.9015 38.5353 39.595V48.6004H37.7685Z" fill="white"/>
</g>
<defs>
<clipPath id="clip0_118_1329">
<rect width="72" height="72" rx="20" fill="white"/>
</clipPath>
</defs>
</svg>
