<svg width="72" height="73" viewBox="0 0 72 73" fill="none" xmlns="http://www.w3.org/2000/svg">
<g clip-path="url(#clip0_118_1329)">
<rect y="0.709961" width="72" height="72" fill="#0077FF"/>
<path d="M37.7685 49.3104C24.2387 49.3104 16.5216 39.8509 16.2 24.1104H22.9773C23.1999 35.6635 28.1963 40.5572 32.1538 41.5662V24.1104H38.5353V34.0743C42.4434 33.6455 46.5493 29.1049 47.9344 24.1104H54.3159C53.794 26.7007 52.7535 29.1533 51.2597 31.3149C49.7658 33.4764 47.8507 35.3003 45.6341 36.6725C48.1084 37.9264 50.2938 39.7011 52.0461 41.8795C53.7985 44.0579 55.0779 46.5906 55.8 49.3104H48.7754C48.1272 46.948 46.8097 44.8334 44.9881 43.2314C43.1665 41.6295 40.9218 40.6114 38.5353 40.3049V49.3104H37.7685Z" fill="white"/>
</g>
<defs>
<clipPath id="clip0_118_1329">
<rect y="0.709961" width="72" height="72" rx="20" fill="white"/>
</clipPath>
</defs>
</svg>
