<svg width="92" height="14" viewBox="0 0 92 14" fill="none" xmlns="http://www.w3.org/2000/svg">
<path d="M5.692 11.583H7.712V0H4.774C1.82 0 0.267 1.517 0.267 3.75C0.267 5.533 1.118 6.583 2.637 7.667L0 11.583H2.187L5.125 7.2L4.107 6.517C2.87 5.683 2.27 5.033 2.27 3.633C2.27 2.4 3.138 1.567 4.791 1.567H5.692V11.583ZM32.218 11.017V9.4C31.6 9.817 30.566 10.183 29.598 10.183C28.145 10.183 27.594 9.5 27.511 8.1H32.301V7.05C32.301 4.133 31.016 3.033 29.03 3.033C26.61 3.033 25.457 4.883 25.457 7.417C25.457 10.333 26.893 11.75 29.43 11.75C30.7 11.75 31.634 11.417 32.218 11.017ZM44.638 11.75C45.556 11.75 46.208 11.583 46.691 11.233V9.617C46.191 9.967 45.59 10.183 44.755 10.183C43.336 10.183 42.752 9.083 42.752 7.35C42.752 5.533 43.469 4.6 44.772 4.6C45.539 4.6 46.291 4.867 46.692 5.117V3.433C46.274 3.2 45.539 3.033 44.555 3.033C42.017 3.033 40.698 4.85 40.698 7.4C40.698 10.2 41.984 11.75 44.638 11.75ZM14.022 3.2V6.517H11.368V3.2H9.382V11.583H11.368V8.083H14.022V11.583H16.009V3.2H14.022ZM24.973 10.017H24.089V3.2H18.296V3.917C18.296 5.967 18.162 8.617 17.461 10.017H16.844V13.5H18.68V11.583H23.137V13.5H24.973V10.017ZM38.562 11.583H40.815L37.627 7.067L40.43 3.2H38.427L35.623 7.067V3.2H33.636V11.583H35.623V7.467L38.562 11.583ZM28.996 4.6C29.981 4.6 30.282 5.417 30.282 6.467V6.633H27.51C27.56 5.3 28.045 4.6 28.996 4.6ZM22.102 10.017H19.297C19.848 8.75 19.999 6.467 19.999 5.017V4.767H22.102V10.017ZM56.942 11.583H59.296L55.156 5.483L59.03 0H57.027L53.27 5.333V0H51.25V11.583H53.27V6.15L56.942 11.583ZM65.994 5.867C65.994 3.833 64.959 3.067 62.856 3.067C61.8212 3.06115 60.8027 3.32516 59.901 3.833V5.483C60.435 5.083 61.604 4.65 62.622 4.65C63.574 4.65 64.008 4.983 64.008 5.883V6.35H63.69C60.652 6.35 59.3 7.35 59.3 9.05C59.3 10.75 60.335 11.7 61.87 11.7C63.04 11.7 63.54 11.317 63.924 10.917H64.008C64.024 11.133 64.091 11.417 64.158 11.583H66.094C66.028 10.9 65.994 10.217 65.994 9.533V5.867ZM64.008 9.583C63.758 9.95 63.29 10.25 62.588 10.25C61.754 10.25 61.337 9.75 61.337 9C61.337 8.017 62.021 7.667 63.724 7.667H64.008V9.583ZM69.369 3.2H67.533V14H69.519V10.6C70.02 11.35 70.754 11.75 71.606 11.75C73.542 11.75 74.878 10.2 74.878 7.383C74.878 4.583 73.576 3.033 71.706 3.033C70.771 3.033 70.003 3.467 69.469 4.283L69.369 3.2ZM71.105 10.183C70.053 10.183 69.519 9.333 69.519 7.4C69.519 5.45 70.087 4.6 71.205 4.6C72.29 4.6 72.825 5.45 72.825 7.383C72.825 9.333 72.257 10.183 71.105 10.183ZM81.801 4.767V3.2H75.141V4.767H77.478V11.583H79.464V4.767H81.801ZM82.919 3.2V11.583H85.94C87.893 11.583 89.279 10.583 89.279 8.617C89.279 6.75 88.044 5.767 85.974 5.767H84.905V3.2H82.919ZM90.013 3.2V11.583H92V3.2H90.013ZM85.823 10.017H84.905V7.333H85.874C86.724 7.333 87.226 7.717 87.226 8.683C87.226 9.65 86.675 10.017 85.823 10.017Z" fill="#999999"/>
</svg>
